<svg width="100" height="100" viewBox="0 0 100 100" fill="none" xmlns="http://www.w3.org/2000/svg">
<path d="M41.0312 15.625C45.4496 15.6265 49.7838 16.8335 53.5669 19.116C57.3501 21.3986 60.4387 24.6701 62.5 28.5781C65.0332 27.0975 67.8735 26.2206 70.8004 26.0155C73.7274 25.8104 76.6623 26.2826 79.3772 27.3955C82.0921 28.5084 84.514 30.232 86.4548 32.4325C88.3957 34.633 89.8033 37.2512 90.5684 40.0838C91.3335 42.9165 91.4354 45.8873 90.8663 48.7658C90.2973 51.6442 89.0724 54.3528 87.287 56.6811C85.5016 59.0095 83.2035 60.8951 80.5713 62.1915C77.9391 63.4879 75.0435 64.1602 72.1094 64.1563L41.0312 64.2344C34.5852 64.2344 28.4033 61.6737 23.8452 57.1157C19.2872 52.5577 16.7266 46.3757 16.7266 39.9297C16.7266 33.4837 19.2872 27.3017 23.8452 22.7437C28.4033 18.1857 34.5852 15.625 41.0312 15.625Z" fill="url(#paint0_linear_12_13699)"/>
<path d="M59.9686 87.1719C55.5476 87.1733 51.2101 85.9676 47.424 83.6849C43.6379 81.4022 40.5468 78.1291 38.4843 74.2188C35.9511 75.6994 33.1108 76.5763 30.1838 76.7814C27.2569 76.9865 24.322 76.5143 21.6071 75.4014C18.8922 74.2885 16.4703 72.5649 14.5294 70.3644C12.5886 68.1639 11.181 65.5457 10.4159 62.713C9.65081 59.8804 9.54886 56.9095 10.1179 54.0311C10.687 51.1527 11.9118 48.4441 13.6973 46.1157C15.4827 43.7873 17.7807 41.9018 20.413 40.6054C23.0452 39.309 25.9408 38.6367 28.8749 38.6406L59.953 38.5625C66.399 38.5625 72.581 41.1232 77.139 45.6812C81.697 50.2392 84.2577 56.4212 84.2577 62.8672C84.2577 69.3132 81.697 75.4952 77.139 80.0532C72.581 84.6112 66.399 87.1719 59.953 87.1719H59.9686Z" fill="url(#paint1_linear_12_13699)"/>
<path d="M47.2836 62.884C50.1212 52.7277 44.1882 42.1942 34.032 39.3566C23.8757 36.519 13.3422 42.4519 10.5046 52.6082C7.66701 62.7644 13.6 73.298 23.7562 76.1355C33.9124 78.9731 44.446 73.0402 47.2836 62.884Z" fill="url(#paint2_linear_12_13699)"/>
<path d="M90.5067 50.2004C93.3443 40.0442 87.4114 29.5106 77.2551 26.673C67.0989 23.8355 56.5653 29.7684 53.7277 39.9246C50.8902 50.0809 56.8231 60.6144 66.9793 63.452C77.1356 66.2896 87.6691 60.3567 90.5067 50.2004Z" fill="url(#paint3_linear_12_13699)"/>
<path d="M43.5625 59.6094C42.1343 60.162 40.6084 60.4172 39.0781 60.3594C33.0469 60.3594 29.9375 56.6094 29.9375 51.6406C29.9375 45.6875 34.1875 42.375 39.4531 42.375C40.9248 42.3247 42.3902 42.5911 43.75 43.1563L42.9531 46.2813C41.903 45.8481 40.7765 45.6303 39.6406 45.6406C38.8798 45.5914 38.1173 45.7085 37.4063 45.9837C36.6953 46.259 36.0528 46.6858 35.5234 47.2345C34.994 47.7832 34.5905 48.4406 34.3409 49.1611C34.0913 49.8815 34.0017 50.6477 34.0781 51.4063C34.0049 52.1632 34.0985 52.9271 34.3524 53.644C34.6062 54.3609 35.0142 55.0134 35.5475 55.5557C36.0808 56.0979 36.7264 56.5166 37.439 56.7823C38.1516 57.0481 38.9138 57.1544 39.6719 57.0938C40.7897 57.0945 41.8994 56.9043 42.9531 56.5313L43.5625 59.6094Z" fill="white"/>
<path d="M61.3437 51.2031C61.3437 56.9219 57.875 60.3906 52.7812 60.3906C47.6875 60.3906 44.5781 56.4844 44.5781 51.5156C44.5781 46.2813 47.9219 42.375 53.0625 42.375C58.2031 42.375 61.3437 46.3906 61.3437 51.2031ZM48.75 51.4375C48.75 54.8594 50.3125 57.2656 53 57.2656C55.6875 57.2656 57.1875 54.6875 57.1875 51.3281C57.1875 48.2031 55.625 45.5 52.9688 45.5C50.3125 45.5 48.75 48.0469 48.75 51.4375Z" fill="white"/>
<path d="M63.3281 63.4844V61.7656L64.8906 60.3594C67.5312 58 68.8125 56.6406 68.8438 55.2344C68.8438 54.25 68.25 53.4688 66.8594 53.4688C65.9145 53.5146 65.0099 53.8655 64.2813 54.4688L63.4844 52.4531C64.6364 51.6282 66.0206 51.1905 67.4375 51.2031C67.9717 51.1335 68.5146 51.1797 69.0293 51.3387C69.544 51.4977 70.0184 51.7658 70.4202 52.1246C70.822 52.4834 71.1418 52.9245 71.3578 53.418C71.5737 53.9115 71.6809 54.4458 71.6719 54.9844C71.6719 57 70.2031 58.625 68.4688 60.1719L67.3594 61.0938H71.875V63.4063L63.3281 63.4844Z" fill="white"/>
<defs>
<linearGradient id="paint0_linear_12_13699" x1="34.8906" y1="66.3125" x2="64.1719" y2="28.375" gradientUnits="userSpaceOnUse">
<stop stop-color="#CECECE"/>
<stop offset="1" stop-color="#ABABAB"/>
</linearGradient>
<linearGradient id="paint1_linear_12_13699" x1="78.7655" y1="53.2031" x2="32.6874" y2="66.375" gradientUnits="userSpaceOnUse">
<stop stop-color="#CECECE"/>
<stop offset="1" stop-color="#ABABAB"/>
</linearGradient>
<linearGradient id="paint2_linear_12_13699" x1="21.0871" y1="64.5526" x2="43.2142" y2="45.2803" gradientUnits="userSpaceOnUse">
<stop offset="0.02" stop-color="#BABABA"/>
<stop offset="1" stop-color="#828282" stop-opacity="0"/>
</linearGradient>
<linearGradient id="paint3_linear_12_13699" x1="79.9242" y1="38.256" x2="57.7971" y2="57.5283" gradientUnits="userSpaceOnUse">
<stop offset="0.02" stop-color="#9C9C9C"/>
<stop offset="0.99" stop-color="#A1A1A1" stop-opacity="0"/>
</linearGradient>
</defs>
</svg>
