<svg width="100" height="100" viewBox="0 0 100 100" fill="none" xmlns="http://www.w3.org/2000/svg">
<path d="M14.8438 63.2812H56.5156C58.7948 63.2812 60.9807 64.1867 62.5923 65.7983C64.204 67.4099 65.1094 69.5958 65.1094 71.875C65.1094 74.1542 64.204 76.3401 62.5923 77.9517C60.9807 79.5633 58.7948 80.4688 56.5156 80.4688" stroke="#A5A9AA" stroke-width="3" stroke-miterlimit="10" stroke-linecap="round"/>
<path d="M64.8438 25.7812C66.2942 25.7812 67.6851 26.3574 68.7107 27.383C69.7363 28.4086 70.3125 29.7996 70.3125 31.25C70.3125 32.7004 69.7363 34.0914 68.7107 35.117C67.6851 36.1426 66.2942 36.7188 64.8438 36.7188H37.5" stroke="#A5A9AA" stroke-width="3" stroke-miterlimit="10" stroke-linecap="round"/>
<path d="M63.2812 50.7812H82.8125C83.9189 50.7812 84.9801 51.2208 85.7625 52.0032C86.5448 52.7855 86.9844 53.8467 86.9844 54.9531C86.9802 56.0569 86.5389 57.114 85.7569 57.893C84.975 58.672 83.9162 59.1094 82.8125 59.1094" stroke="#A5A9AA" stroke-width="3" stroke-miterlimit="10" stroke-linecap="round"/>
<path d="M41.4062 50.7812H53.9062" stroke="#A5A9AA" stroke-width="3" stroke-miterlimit="10" stroke-linecap="round"/>
<path d="M14.8438 50.7812H32.0312" stroke="#A5A9AA" stroke-width="3" stroke-miterlimit="10" stroke-linecap="round"/>
<path d="M33 34.584C33 37.3465 31.9464 39.9958 30.0711 41.9492C28.1957 43.9026 25.6522 45 23 45C20.3478 45 17.8043 43.9026 15.9289 41.9492C14.0536 39.9958 13 37.3465 13 34.584C13 25.456 21.0645 17 23 17C24.9355 17 33 25.4 33 34.584Z" fill="#75D1FF"/>
<path d="M33 34.584C33 37.3465 31.9464 39.9958 30.0711 41.9492C28.1957 43.9026 25.6522 45 23 45C20.3478 45 17.8043 43.9026 15.9289 41.9492C14.0536 39.9958 13 37.3465 13 34.584C13 25.456 21.0645 17 23 17C24.9355 17 33 25.4 33 34.584Z" fill="url(#paint0_linear_3_4156)" fill-opacity="0.5"/>
<defs>
<linearGradient id="paint0_linear_3_4156" x1="29.1371" y1="23.7648" x2="15.4649" y2="41.1346" gradientUnits="userSpaceOnUse">
<stop stop-color="#8DD5FE" stop-opacity="0"/>
<stop offset="1" stop-color="#026C99"/>
</linearGradient>
</defs>
</svg>
