<svg width="100" height="100" viewBox="0 0 100 100" fill="none" xmlns="http://www.w3.org/2000/svg">
<path d="M14.8438 63.2812H56.5156C58.7948 63.2812 60.9807 64.1867 62.5923 65.7983C64.204 67.4099 65.1094 69.5958 65.1094 71.875C65.1094 74.1542 64.204 76.3401 62.5923 77.9517C60.9807 79.5633 58.7948 80.4688 56.5156 80.4688" stroke="#A5A9AA" stroke-width="3" stroke-miterlimit="10" stroke-linecap="round"/>
<path d="M64.8438 25.7812C66.2942 25.7812 67.6851 26.3574 68.7107 27.383C69.7363 28.4086 70.3125 29.7996 70.3125 31.25C70.3125 32.7004 69.7363 34.0914 68.7107 35.117C67.6851 36.1426 66.2942 36.7188 64.8438 36.7188H47" stroke="#A5A9AA" stroke-width="3" stroke-miterlimit="10" stroke-linecap="round"/>
<path d="M63.2812 50.7812H82.8125C83.9189 50.7812 84.9801 51.2208 85.7625 52.0032C86.5448 52.7855 86.9844 53.8467 86.9844 54.9531C86.9802 56.0569 86.5389 57.114 85.7569 57.893C84.975 58.672 83.9162 59.1094 82.8125 59.1094" stroke="#A5A9AA" stroke-width="3" stroke-miterlimit="10" stroke-linecap="round"/>
<path d="M41.4062 50.7812H53.9062" stroke="#A5A9AA" stroke-width="3" stroke-miterlimit="10" stroke-linecap="round"/>
<path d="M14.8438 50.7812H32.0312" stroke="#A5A9AA" stroke-width="3" stroke-miterlimit="10" stroke-linecap="round"/>
<path d="M35.4926 36.1688C33.2626 35.9825 31.1028 35.2982 29.1726 34.1663C27.2424 33.0345 25.5909 31.4839 24.34 29.6291C23.089 27.7742 22.2705 25.6623 21.9448 23.4491C21.6191 21.2359 21.7945 18.9779 22.458 16.8415C22.4972 16.7145 22.4965 16.5786 22.4561 16.4521C22.4156 16.3256 22.3374 16.2145 22.2318 16.1337C22.1263 16.053 21.9986 16.0066 21.8658 16.0006C21.7331 15.9947 21.6017 16.0296 21.4894 16.1006C19.5009 17.2456 17.8027 18.8327 16.5263 20.7391C15.2499 22.6456 14.4296 24.8201 14.1289 27.0943C13.8282 29.3685 14.0552 31.6814 14.7923 33.8538C15.5294 36.0263 16.7568 38 18.3795 39.6221C20.0021 41.2442 21.9765 42.4711 24.1497 43.208C26.3229 43.9448 28.6366 44.1717 30.9116 43.8711C33.1866 43.5705 35.3619 42.7505 37.269 41.4746C39.176 40.1987 40.7637 38.5011 41.9091 36.5132C41.9756 36.4011 42.0069 36.2715 41.9987 36.1414C41.9906 36.0113 41.9435 35.8866 41.8636 35.7836C41.7837 35.6805 41.6746 35.6039 41.5506 35.5637C41.4265 35.5235 41.2932 35.5214 41.168 35.5579C39.3328 36.123 37.4061 36.3304 35.4926 36.1688Z" fill="#FCFC07"/>
</svg>
