<svg width="100" height="100" viewBox="0 0 100 100" fill="none" xmlns="http://www.w3.org/2000/svg">
<path d="M14.8438 63.2812H56.5156C58.7948 63.2812 60.9807 64.1867 62.5923 65.7983C64.204 67.4099 65.1094 69.5958 65.1094 71.875C65.1094 74.1542 64.204 76.3401 62.5923 77.9517C60.9807 79.5633 58.7948 80.4688 56.5156 80.4688" stroke="#A5A9AA" stroke-width="3" stroke-miterlimit="10" stroke-linecap="round"/>
<path d="M64.8438 25.7812C66.2942 25.7812 67.6852 26.3574 68.7107 27.383C69.7363 28.4086 70.3125 29.7996 70.3125 31.25C70.3125 32.7004 69.7363 34.0914 68.7107 35.117C67.6852 36.1426 66.2942 36.7188 64.8438 36.7188H40.5" stroke="#A5A9AA" stroke-width="3" stroke-miterlimit="10" stroke-linecap="round"/>
<path d="M63.2812 50.7812H82.8125C83.9189 50.7812 84.9801 51.2208 85.7625 52.0032C86.5448 52.7855 86.9844 53.8467 86.9844 54.9531C86.9802 56.0569 86.5389 57.114 85.7569 57.893C84.975 58.672 83.9162 59.1094 82.8125 59.1094" stroke="#A5A9AA" stroke-width="3" stroke-miterlimit="10" stroke-linecap="round"/>
<path d="M41.4062 50.7812H53.9062" stroke="#A5A9AA" stroke-width="3" stroke-miterlimit="10" stroke-linecap="round"/>
<path d="M14.8438 50.7812H32.0312" stroke="#A5A9AA" stroke-width="3" stroke-miterlimit="10" stroke-linecap="round"/>
<path d="M24.5625 27.0469V42.875" stroke="#0BAEFF" stroke-width="2" stroke-miterlimit="10" stroke-linecap="round"/>
<path d="M26.3906 25L24.5625 27.2969L22.7188 25" stroke="#0BAEFF" stroke-width="2" stroke-miterlimit="10" stroke-linecap="round"/>
<path d="M22.7188 44.9375L24.5625 42.6406L26.3906 44.9375" stroke="#0BAEFF" stroke-width="2" stroke-miterlimit="10" stroke-linecap="round"/>
<path d="M31.4062 31L17.7031 38.9219" stroke="#0BAEFF" stroke-width="2" stroke-miterlimit="10" stroke-linecap="round"/>
<path d="M34.1094 31.5781L31.2031 31.125L32.2656 28.3906" stroke="#0BAEFF" stroke-width="2" stroke-miterlimit="10" stroke-linecap="round"/>
<path d="M15 38.3594L17.9063 38.7969L16.8438 41.5469" stroke="#0BAEFF" stroke-width="2" stroke-miterlimit="10" stroke-linecap="round"/>
<path d="M31.4062 38.9219L17.7031 31" stroke="#0BAEFF" stroke-width="2" stroke-miterlimit="10" stroke-linecap="round"/>
<path d="M32.2656 41.5469L31.2031 38.7969L34.1094 38.3594" stroke="#0BAEFF" stroke-width="2" stroke-miterlimit="10" stroke-linecap="round"/>
<path d="M16.8438 28.3906L17.9063 31.125L15 31.5781" stroke="#0BAEFF" stroke-width="2" stroke-miterlimit="10" stroke-linecap="round"/>
</svg>
