<svg width="100" height="100" viewBox="0 0 100 100" fill="none" xmlns="http://www.w3.org/2000/svg">
<path d="M14.8438 63.2812H56.5156C58.7948 63.2812 60.9807 64.1867 62.5923 65.7983C64.204 67.4099 65.1094 69.5958 65.1094 71.875C65.1094 74.1542 64.204 76.3401 62.5923 77.9517C60.9807 79.5633 58.7948 80.4688 56.5156 80.4688" stroke="#A5A9AA" stroke-width="3" stroke-miterlimit="10" stroke-linecap="round"/>
<path d="M64.8438 25.7812C66.2942 25.7812 67.6851 26.3574 68.7107 27.383C69.7363 28.4086 70.3125 29.7996 70.3125 31.25C70.3125 32.7004 69.7363 34.0914 68.7107 35.117C67.6851 36.1426 66.2942 36.7188 64.8438 36.7188H44" stroke="#A5A9AA" stroke-width="3" stroke-miterlimit="10" stroke-linecap="round"/>
<path d="M63.2812 50.7812H82.8125C83.9189 50.7812 84.9801 51.2208 85.7625 52.0032C86.5448 52.7855 86.9844 53.8467 86.9844 54.9531C86.9802 56.0569 86.5389 57.114 85.7569 57.893C84.975 58.672 83.9162 59.1094 82.8125 59.1094" stroke="#A5A9AA" stroke-width="3" stroke-miterlimit="10" stroke-linecap="round"/>
<path d="M41.4062 50.7812H53.9062" stroke="#A5A9AA" stroke-width="3" stroke-miterlimit="10" stroke-linecap="round"/>
<path d="M14.8438 50.7812H32.0312" stroke="#A5A9AA" stroke-width="3" stroke-miterlimit="10" stroke-linecap="round"/>
<path d="M23 45C28.5228 45 33 40.5228 33 35C33 29.4772 28.5228 25 23 25C17.4772 25 13 29.4772 13 35C13 40.5228 17.4772 45 23 45Z" fill="#FCFC07"/>
<path d="M23 20L23 22.1429" stroke="#FCFC07" stroke-width="3" stroke-miterlimit="10" stroke-linecap="round"/>
<path d="M23 47.8572L23 50" stroke="#FCFC07" stroke-width="3" stroke-miterlimit="10" stroke-linecap="round"/>
<path d="M38 35L35.8571 35" stroke="#FCFC07" stroke-width="3" stroke-miterlimit="10" stroke-linecap="round"/>
<path d="M10.1429 35H8" stroke="#FCFC07" stroke-width="3" stroke-miterlimit="10" stroke-linecap="round"/>
<path d="M33.9821 24.2858L32.1071 26.1608" stroke="#FCFC07" stroke-width="3" stroke-miterlimit="10" stroke-linecap="round"/>
<path d="M14.1607 43.5714L12.2857 45.4464" stroke="#FCFC07" stroke-width="3" stroke-miterlimit="10" stroke-linecap="round"/>
<path d="M33.4464 45.4464L31.5714 43.5714" stroke="#FCFC07" stroke-width="3" stroke-miterlimit="10" stroke-linecap="round"/>
<path d="M14.1607 26.1608L12.2857 24.2858" stroke="#FCFC07" stroke-width="3" stroke-miterlimit="10" stroke-linecap="round"/>
</svg>
