<svg width="100" height="100" viewBox="0 0 100 100" fill="none" xmlns="http://www.w3.org/2000/svg">
<path d="M63 63C74.0457 63 83 54.0457 83 43C83 31.9543 74.0457 23 63 23C51.9543 23 43 31.9543 43 43C43 54.0457 51.9543 63 63 63Z" fill="#FCFC07"/>
<path d="M63 15L63 19" stroke="#FCFC07" stroke-width="3" stroke-miterlimit="10" stroke-linecap="round"/>
<path d="M91 43L87 43" stroke="#FCFC07" stroke-width="3" stroke-miterlimit="10" stroke-linecap="round"/>
<path d="M83.5 23L80 26.5" stroke="#FCFC07" stroke-width="3" stroke-miterlimit="10" stroke-linecap="round"/>
<path d="M46.5 26.5L43 23" stroke="#FCFC07" stroke-width="3" stroke-miterlimit="10" stroke-linecap="round"/>
<path d="M36.7188 34.2187C41.6994 34.2086 46.5881 35.5599 50.8566 38.1265C55.125 40.6931 58.6109 44.3774 60.9375 48.7812C63.7878 47.1147 66.9838 46.1276 70.2775 45.8965C73.5711 45.6653 76.8737 46.1964 79.9288 47.4485C82.9839 48.7006 85.7093 50.64 87.8935 53.1161C90.0776 55.5922 91.6616 58.5384 92.5225 61.7259C93.3835 64.9134 93.4982 68.2565 92.8578 71.4955C92.2173 74.7345 90.8389 77.7824 88.8297 80.4024C86.8204 83.0224 84.2344 85.144 81.2722 86.6026C78.3102 88.0611 75.0517 88.8173 71.75 88.8125L36.7188 88.9062C29.4667 88.9062 22.5117 86.0254 17.3838 80.8974C12.2559 75.7695 9.375 68.8145 9.375 61.5625C9.375 54.3105 12.2559 47.3555 17.3838 42.2275C22.5117 37.0996 29.4667 34.2187 36.7188 34.2187Z" fill="url(#paint0_linear_12_13727)"/>
<path d="M36.7188 34.7187L36.7198 34.7187C41.6093 34.7088 46.4086 36.0354 50.5989 38.555C54.7893 41.0746 58.2114 44.6915 60.4954 49.0148L60.7392 49.4764L61.1899 49.2129C63.9738 47.5852 67.0955 46.621 70.3125 46.3952C73.5295 46.1695 76.7552 46.6882 79.7392 47.9112C82.7232 49.1341 85.3852 51.0284 87.5185 53.4469C89.6518 55.8654 91.1989 58.743 92.0398 61.8563C92.8808 64.9696 92.9928 68.2349 92.3673 71.3985C91.7417 74.5622 90.3954 77.5391 88.4329 80.0981C86.4704 82.6571 83.9445 84.7294 81.0514 86.154C78.1582 87.5786 74.9756 88.3172 71.7507 88.3125L71.7487 88.3125L36.7188 88.4062C36.7183 88.4062 36.7179 88.4062 36.7174 88.4062C29.5985 88.4059 22.7712 85.5778 17.7374 80.5439C12.7032 75.5097 9.875 68.6819 9.875 61.5625C9.875 54.4431 12.7032 47.6153 17.7374 42.5811C22.7715 37.5469 29.5993 34.7187 36.7188 34.7187Z" stroke="#8FDAFF" stroke-opacity="0.1"/>
<path d="M92.3936 73.1056C95.5864 61.6778 88.9107 49.8253 77.4828 46.6325C66.055 43.4396 54.2026 50.1154 51.0097 61.5432C47.8168 72.9711 54.4926 84.8235 65.9205 88.0164C77.3483 91.2092 89.2007 84.5334 92.3936 73.1056Z" fill="url(#paint1_linear_12_13727)"/>
<path d="M77.3483 47.114C88.5102 50.2326 95.0306 61.8092 91.912 72.9711C88.7935 84.1329 77.2169 90.6534 66.055 87.5348C54.8931 84.4162 48.3727 72.8397 51.4913 61.6778C54.6098 50.5159 66.1864 43.9955 77.3483 47.114Z" stroke="#8FDAFF" stroke-opacity="0.1"/>
<defs>
<linearGradient id="paint0_linear_12_13727" x1="29.8987" y1="91.2344" x2="62.8549" y2="48.5742" gradientUnits="userSpaceOnUse">
<stop stop-color="#75D1FF" stop-opacity="0.95"/>
<stop offset="1" stop-color="#EBF8FF"/>
</linearGradient>
<linearGradient id="paint1_linear_12_13727" x1="80.4868" y1="59.688" x2="55.5835" y2="81.3482" gradientUnits="userSpaceOnUse">
<stop offset="0.02" stop-color="#8FDAFF"/>
<stop offset="1" stop-color="#E0F5FF" stop-opacity="0"/>
</linearGradient>
</defs>
</svg>
