<svg width="80" height="78" viewBox="0 0 80 78" fill="none" xmlns="http://www.w3.org/2000/svg">
<g clip-path="url(#clip0_0_722)">
<mask id="mask0_0_722" style="mask-type:luminance" maskUnits="userSpaceOnUse" x="0" y="0" width="80" height="47">
<path fill-rule="evenodd" clip-rule="evenodd" d="M39.6679 0.864502H0V46.3845H79.3357V0.864502H39.6679Z" fill="white"/>
</mask>
<g mask="url(#mask0_0_722)">
<path fill-rule="evenodd" clip-rule="evenodd" d="M12.015 22.1403C5.39102 22.1403 -0.000213623 27.5779 -0.000213623 34.2635C-0.000213623 40.9449 5.39102 46.3845 12.015 46.3845H64.2552C72.5722 46.3845 79.3357 39.5575 79.3357 31.1661C79.3357 22.7748 72.5722 15.9477 64.2552 15.9477C62.708 15.9477 61.1692 16.189 59.6865 16.6612L58.7203 16.9711L58.3788 16.006C55.1865 6.94896 46.653 0.864502 37.147 0.864502C25.5254 0.864502 15.8799 9.65108 14.7096 21.302L14.6013 22.3816L13.5351 22.2485C12.9437 22.1736 12.4606 22.1403 12.015 22.1403Z" fill="#D6E3F2"/>
</g>
<path fill-rule="evenodd" clip-rule="evenodd" d="M25.5918 58.9717C25.5918 61.7113 23.3678 63.9329 20.6254 63.9329C17.8829 63.9329 15.661 61.7113 15.661 58.9717C15.661 56.2322 17.8829 54.0106 20.6254 54.0106C23.3678 54.0106 25.5918 56.2322 25.5918 58.9717Z" fill="#4FB4ED"/>
<path fill-rule="evenodd" clip-rule="evenodd" d="M43.946 58.9717C43.946 61.7113 41.722 63.9329 38.9795 63.9329C36.237 63.9329 34.0152 61.7113 34.0152 58.9717C34.0152 56.2322 36.237 54.0106 38.9795 54.0106C41.722 54.0106 43.946 56.2322 43.946 58.9717Z" fill="#4FB4ED"/>
<path fill-rule="evenodd" clip-rule="evenodd" d="M62.4884 58.9717C62.4884 61.7113 60.2644 63.9329 57.5219 63.9329C54.7795 63.9329 52.5576 61.7113 52.5576 58.9717C52.5576 56.2322 54.7795 54.0106 57.5219 54.0106C60.2644 54.0106 62.4884 56.2322 62.4884 58.9717Z" fill="#4FB4ED"/>
<mask id="mask1_0_722" style="mask-type:luminance" maskUnits="userSpaceOnUse" x="25" y="67" width="11" height="11">
<path fill-rule="evenodd" clip-rule="evenodd" d="M25.0948 77.2977H35.0255V67.376H25.0948V77.2977H25.0948Z" fill="white"/>
</mask>
<g mask="url(#mask1_0_722)">
<path fill-rule="evenodd" clip-rule="evenodd" d="M35.0255 72.3371C35.0255 75.0767 32.8016 77.2983 30.0591 77.2983C27.3166 77.2983 25.0948 75.0767 25.0948 72.3371C25.0948 69.5976 27.3166 67.376 30.0591 67.376C32.8016 67.376 35.0255 69.5976 35.0255 72.3371Z" fill="#4FB4ED"/>
</g>
<mask id="mask2_0_722" style="mask-type:luminance" maskUnits="userSpaceOnUse" x="43" y="67" width="11" height="11">
<path fill-rule="evenodd" clip-rule="evenodd" d="M43.422 77.2977H53.3528V67.376H43.422V77.2977H43.422Z" fill="white"/>
</mask>
<g mask="url(#mask2_0_722)">
<path fill-rule="evenodd" clip-rule="evenodd" d="M53.3528 72.3371C53.3528 75.0767 51.1289 77.2983 48.3864 77.2983C45.6439 77.2983 43.422 75.0767 43.422 72.3371C43.422 69.5976 45.6439 67.376 48.3864 67.376C51.1289 67.376 53.3528 69.5976 53.3528 72.3371Z" fill="#4FB4ED"/>
</g>
<mask id="mask3_0_722" style="mask-type:luminance" maskUnits="userSpaceOnUse" x="62" y="67" width="11" height="11">
<path fill-rule="evenodd" clip-rule="evenodd" d="M62.4892 77.2977H72.42V67.376H62.4892V77.2977H62.4892Z" fill="white"/>
</mask>
<g mask="url(#mask3_0_722)">
<path fill-rule="evenodd" clip-rule="evenodd" d="M72.42 72.3371C72.42 75.0767 70.196 77.2983 67.4535 77.2983C64.7111 77.2983 62.4892 75.0767 62.4892 72.3371C62.4892 69.5976 64.7111 67.376 67.4535 67.376C70.196 67.376 72.42 69.5976 72.42 72.3371Z" fill="#4FB4ED"/>
</g>
</g>
<defs>
<clipPath id="clip0_0_722">
<rect width="80" height="78" fill="white"/>
</clipPath>
</defs>
</svg>
