<svg width="100" height="100" viewBox="0 0 100 100" fill="none" xmlns="http://www.w3.org/2000/svg">
<path d="M78.875 76.9219C74.4315 78.6432 69.6839 79.4406 64.9219 79.2656C46.1719 79.2656 36.4375 67.5625 36.4375 52.0781C36.4375 33.5156 49.6719 23.1875 66.125 23.1875C70.7104 23.0274 75.2768 23.8533 79.5156 25.6094L77.0156 35.375C73.7418 34.0211 70.2302 33.3358 66.6875 33.3594C56.9219 33.3594 49.3438 39.25 49.3438 51.3438C49.3438 62.2812 55.7969 69.0938 66.7656 69.0938C70.2587 69.0874 73.7252 68.485 77.0156 67.3125L78.875 76.9219Z" fill="white"/>
<path d="M25.5469 38.0937C29.0159 38.0937 31.8281 35.2815 31.8281 31.8125C31.8281 28.3435 29.0159 25.5312 25.5469 25.5312C22.0778 25.5312 19.2656 28.3435 19.2656 31.8125C19.2656 35.2815 22.0778 38.0937 25.5469 38.0937Z" stroke="white" stroke-width="3" stroke-miterlimit="10"/>
</svg>
