<svg width="100" height="100" viewBox="0 0 100 100" fill="none" xmlns="http://www.w3.org/2000/svg">
<path d="M47.125 17.9844L10.6875 81.0938C10.3976 81.599 10.2454 82.1714 10.2461 82.7538C10.2468 83.3363 10.4003 83.9084 10.6913 84.4129C10.9823 84.9174 11.4006 85.3368 11.9045 85.629C12.4083 85.9212 12.98 86.0761 13.5625 86.0781H86.4375C87.0199 86.0761 87.5917 85.9212 88.0955 85.629C88.5993 85.3368 89.0177 84.9174 89.3087 84.4129C89.5997 83.9084 89.7532 83.3363 89.7539 82.7538C89.7546 82.1714 89.6024 81.599 89.3125 81.0938L52.875 17.9844C52.5819 17.4818 52.1623 17.0649 51.6578 16.7751C51.1534 16.4853 50.5818 16.3328 50 16.3328C49.4182 16.3328 48.8466 16.4853 48.3422 16.7751C47.8377 17.0649 47.4181 17.4818 47.125 17.9844Z" fill="#FCFC07"/>
<path d="M45.3126 71.875C45.3126 70.9479 45.5875 70.0416 46.1025 69.2708C46.6176 68.4999 47.3497 67.8991 48.2062 67.5443C49.0628 67.1895 50.0052 67.0967 50.9145 67.2776C51.8238 67.4584 52.6591 67.9049 53.3146 68.5604C53.9702 69.216 54.4166 70.0512 54.5975 70.9605C54.7784 71.8698 54.6855 72.8123 54.3307 73.6688C53.9759 74.5254 53.3751 75.2574 52.6043 75.7725C51.8334 76.2876 50.9272 76.5625 50.0001 76.5625C49.3774 76.589 48.756 76.4859 48.1753 76.2598C47.5946 76.0336 47.0672 75.6892 46.6265 75.2486C46.1858 74.8079 45.8415 74.2805 45.6153 73.6997C45.3891 73.119 45.286 72.4976 45.3126 71.875ZM47.0157 64.5937L45.8282 41.1562H54.0469L52.9063 64.5937H47.0157Z" fill="#353535"/>
</svg>
