<svg width="100" height="100" viewBox="0 0 100 100" fill="none" xmlns="http://www.w3.org/2000/svg">
<path d="M76.5625 59.375C76.5625 66.627 73.6817 73.582 68.5537 78.71C63.4258 83.8379 56.4708 86.7188 49.2188 86.7188C41.9667 86.7188 35.0117 83.8379 29.8838 78.71C24.7559 73.582 21.875 66.627 21.875 59.375C21.875 35.4688 44.0938 13.25 49.2188 13.25C54.3438 13.25 76.5625 35.4688 76.5625 59.375Z" fill="#75D1FF"/>
<path d="M76.5625 59.375C76.5625 66.627 73.6817 73.582 68.5537 78.71C63.4258 83.8379 56.4708 86.7188 49.2188 86.7188C41.9667 86.7188 35.0117 83.8379 29.8838 78.71C24.7559 73.582 21.875 66.627 21.875 59.375C21.875 35.4688 44.0938 13.25 49.2188 13.25C54.3438 13.25 76.5625 35.4688 76.5625 59.375Z" fill="url(#paint0_linear_1_84)" fill-opacity="0.5"/>
<defs>
<linearGradient id="paint0_linear_1_84" x1="66" y1="31" x2="30.5" y2="78" gradientUnits="userSpaceOnUse">
<stop stop-color="#8DD5FE" stop-opacity="0"/>
<stop offset="1" stop-color="#026C99"/>
</linearGradient>
</defs>
</svg>
