<svg width="100" height="100" viewBox="0 0 100 100" fill="none" xmlns="http://www.w3.org/2000/svg">
<path d="M85.9375 58.7969C88.5263 58.7969 90.625 56.6982 90.625 54.1094C90.625 51.5205 88.5263 49.4219 85.9375 49.4219C83.3487 49.4219 81.25 51.5205 81.25 54.1094C81.25 56.6982 83.3487 58.7969 85.9375 58.7969Z" fill="#75D1FF"/>
<path d="M85.9375 58.7969C88.5263 58.7969 90.625 56.6982 90.625 54.1094C90.625 51.5205 88.5263 49.4219 85.9375 49.4219C83.3487 49.4219 81.25 51.5205 81.25 54.1094C81.25 56.6982 83.3487 58.7969 85.9375 58.7969Z" fill="url(#paint0_linear_1_356)" fill-opacity="0.5"/>
<path d="M8.59375 75.7812H91.4062" stroke="#0D98FF" stroke-width="3" stroke-linecap="round" stroke-linejoin="round"/>
<path d="M19.5312 85.1562H75.7812" stroke="#0D98FF" stroke-width="3" stroke-linecap="round" stroke-linejoin="round"/>
<path d="M38.2812 24.2188V65.1094C34.7593 60.8495 30.3064 57.455 25.2656 55.1875" stroke="#0BAEFF" stroke-width="3" stroke-linecap="round" stroke-linejoin="round"/>
<path d="M60.1562 30.4688V65.1094C60.1562 65.1094 65.625 55.2187 76.2969 55.1875" stroke="#0BAEFF" stroke-width="3" stroke-linecap="round" stroke-linejoin="round"/>
<path d="M14.0625 57.2344C16.6513 57.2344 18.75 55.1357 18.75 52.5469C18.75 49.958 16.6513 47.8594 14.0625 47.8594C11.4737 47.8594 9.375 49.958 9.375 52.5469C9.375 55.1357 11.4737 57.2344 14.0625 57.2344Z" fill="#75D1FF"/>
<path d="M14.0625 57.2344C16.6513 57.2344 18.75 55.1357 18.75 52.5469C18.75 49.958 16.6513 47.8594 14.0625 47.8594C11.4737 47.8594 9.375 49.958 9.375 52.5469C9.375 55.1357 11.4737 57.2344 14.0625 57.2344Z" fill="url(#paint1_linear_1_356)" fill-opacity="0.5"/>
<path d="M49.2188 14.8438V35.1562" stroke="#0BAEFF" stroke-width="3" stroke-linecap="round" stroke-linejoin="round"/>
<path d="M49.2188 46.0938V60.1562" stroke="#0BAEFF" stroke-width="3" stroke-linecap="round" stroke-linejoin="round"/>
<defs>
<linearGradient id="paint0_linear_1_356" x1="88.8143" y1="51.6869" x2="84.7905" y2="58.8436" gradientUnits="userSpaceOnUse">
<stop stop-color="#8DD5FE" stop-opacity="0"/>
<stop offset="1" stop-color="#026C99"/>
</linearGradient>
<linearGradient id="paint1_linear_1_356" x1="16.9393" y1="50.1244" x2="12.9155" y2="57.2811" gradientUnits="userSpaceOnUse">
<stop stop-color="#8DD5FE" stop-opacity="0"/>
<stop offset="1" stop-color="#026C99"/>
</linearGradient>
</defs>
</svg>
