<svg width="100" height="100" viewBox="0 0 100 100" fill="none" xmlns="http://www.w3.org/2000/svg">
<path d="M42.9923 83.0618C42.8463 84.2297 41.1537 84.2297 41.0077 83.0618L34 27H50L42.9923 83.0618Z" fill="#75D1FF"/>
<path d="M42.9923 83.0618C42.8463 84.2297 41.1537 84.2297 41.0077 83.0618L34 27H50L42.9923 83.0618Z" fill="url(#paint0_linear_3_4313)" fill-opacity="0.5"/>
<path d="M65.9662 53.3766C65.7023 54.3664 64.2977 54.3664 64.0338 53.3766L57 27L73 27L65.9662 53.3766Z" fill="#75D1FF"/>
<path d="M65.9662 53.3766C65.7023 54.3664 64.2977 54.3664 64.0338 53.3766L57 27L73 27L65.9662 53.3766Z" fill="url(#paint1_linear_3_4313)" fill-opacity="0.5"/>
<path d="M82.9578 43.8072C82.6728 44.7574 81.3272 44.7574 81.0422 43.8072L76 27H88L82.9578 43.8072Z" fill="#75D1FF"/>
<path d="M82.9578 43.8072C82.6728 44.7574 81.3272 44.7574 81.0422 43.8072L76 27H88L82.9578 43.8072Z" fill="url(#paint2_linear_3_4313)" fill-opacity="0.5"/>
<path d="M22.9473 59.6974C22.641 60.6038 21.359 60.6038 21.0527 59.6975L10 27H34L22.9473 59.6974Z" fill="#75D1FF"/>
<path d="M22.9473 59.6974C22.641 60.6038 21.359 60.6038 21.0527 59.6975L10 27H34L22.9473 59.6974Z" fill="url(#paint3_linear_3_4313)" fill-opacity="0.5"/>
<path d="M8 27H92" stroke="#75D1FF" stroke-width="3" stroke-linecap="round" stroke-linejoin="round"/>
<path d="M6 17H94" stroke="#75D1FF" stroke-width="3" stroke-linecap="round" stroke-linejoin="round"/>
<path d="M22 70V72" stroke="#75D1FF" stroke-width="3" stroke-miterlimit="10" stroke-linecap="round"/>
<path d="M65 71V73" stroke="#75D1FF" stroke-width="3" stroke-miterlimit="10" stroke-linecap="round"/>
<path d="M82 57V59" stroke="#75D1FF" stroke-width="3" stroke-miterlimit="10" stroke-linecap="round"/>
<defs>
<linearGradient id="paint0_linear_3_4313" x1="37.0903" y1="75.5376" x2="60.962" y2="64.9229" gradientUnits="userSpaceOnUse">
<stop stop-color="#8DD5FE" stop-opacity="0"/>
<stop offset="1" stop-color="#026C99"/>
</linearGradient>
<linearGradient id="paint1_linear_3_4313" x1="60.0903" y1="49.752" x2="75.1398" y2="35.4761" gradientUnits="userSpaceOnUse">
<stop stop-color="#8DD5FE" stop-opacity="0"/>
<stop offset="1" stop-color="#026C99"/>
</linearGradient>
<linearGradient id="paint2_linear_3_4313" x1="78.3177" y1="42.168" x2="88.3435" y2="31.4688" gradientUnits="userSpaceOnUse">
<stop stop-color="#8DD5FE" stop-opacity="0"/>
<stop offset="1" stop-color="#026C99"/>
</linearGradient>
<linearGradient id="paint3_linear_3_4313" x1="14.6354" y1="53.9232" x2="32.17" y2="32.8388" gradientUnits="userSpaceOnUse">
<stop stop-color="#8DD5FE" stop-opacity="0"/>
<stop offset="1" stop-color="#026C99"/>
</linearGradient>
</defs>
</svg>
