<svg width="100" height="100" viewBox="0 0 100 100" fill="none" xmlns="http://www.w3.org/2000/svg">
<path d="M44 65.1842C44 67.2571 43.1571 69.245 41.6569 70.7108C40.1566 72.1766 38.1217 73 36 73C33.8783 73 31.8434 72.1766 30.3431 70.7108C28.8429 69.245 28 67.2571 28 65.1842C28 58.3509 34.5006 52 36 52C37.4994 52 44 58.3509 44 65.1842Z" fill="#75D1FF"/>
<path d="M44 65.1842C44 67.2571 43.1571 69.245 41.6569 70.7108C40.1566 72.1766 38.1217 73 36 73C33.8783 73 31.8434 72.1766 30.3431 70.7108C28.8429 69.245 28 67.2571 28 65.1842C28 58.3509 34.5006 52 36 52C37.4994 52 44 58.3509 44 65.1842Z" fill="url(#paint0_linear_5_4321)" fill-opacity="0.5"/>
<path d="M72 65.1842C72 67.2571 71.1571 69.245 69.6569 70.7108C68.1566 72.1765 66.1217 73 64 73C61.8783 73 59.8434 72.1765 58.3431 70.7108C56.8429 69.245 56 67.2571 56 65.1842C56 58.3509 62.5006 52 64 52C65.4994 52 72 58.3509 72 65.1842Z" fill="#75D1FF"/>
<path d="M72 65.1842C72 67.2571 71.1571 69.245 69.6569 70.7108C68.1566 72.1765 66.1217 73 64 73C61.8783 73 59.8434 72.1765 58.3431 70.7108C56.8429 69.245 56 67.2571 56 65.1842C56 58.3509 62.5006 52 64 52C65.4994 52 72 58.3509 72 65.1842Z" fill="url(#paint1_linear_5_4321)" fill-opacity="0.5"/>
<path d="M58 40.1842C58 42.2571 57.1571 44.245 55.6569 45.7108C54.1566 47.1766 52.1217 48 50 48C47.8783 48 45.8434 47.1766 44.3431 45.7108C42.8429 44.245 42 42.2571 42 40.1842C42 33.3509 48.5006 27 50 27C51.4994 27 58 33.3509 58 40.1842Z" fill="#75D1FF"/>
<path d="M58 40.1842C58 42.2571 57.1571 44.245 55.6569 45.7108C54.1566 47.1766 52.1217 48 50 48C47.8783 48 45.8434 47.1766 44.3431 45.7108C42.8429 44.245 42 42.2571 42 40.1842C42 33.3509 48.5006 27 50 27C51.4994 27 58 33.3509 58 40.1842Z" fill="url(#paint2_linear_5_4321)" fill-opacity="0.5"/>
<path d="M86 40.1842C86 42.2571 85.1571 44.245 83.6569 45.7108C82.1566 47.1766 80.1217 48 78 48C75.8783 48 73.8434 47.1766 72.3431 45.7108C70.8429 44.245 70 42.2571 70 40.1842C70 33.3509 76.5006 27 78 27C79.4994 27 86 33.3509 86 40.1842Z" fill="#75D1FF"/>
<path d="M86 40.1842C86 42.2571 85.1571 44.245 83.6569 45.7108C82.1566 47.1766 80.1217 48 78 48C75.8783 48 73.8434 47.1766 72.3431 45.7108C70.8429 44.245 70 42.2571 70 40.1842C70 33.3509 76.5006 27 78 27C79.4994 27 86 33.3509 86 40.1842Z" fill="url(#paint3_linear_5_4321)" fill-opacity="0.5"/>
<path d="M30 40.1842C30 42.2571 29.1571 44.245 27.6569 45.7108C26.1566 47.1766 24.1217 48 22 48C19.8783 48 17.8434 47.1766 16.3431 45.7108C14.8429 44.245 14 42.2571 14 40.1842C14 33.3509 20.5006 27 22 27C23.4994 27 30 33.3509 30 40.1842Z" fill="#75D1FF"/>
<path d="M30 40.1842C30 42.2571 29.1571 44.245 27.6569 45.7108C26.1566 47.1766 24.1217 48 22 48C19.8783 48 17.8434 47.1766 16.3431 45.7108C14.8429 44.245 14 42.2571 14 40.1842C14 33.3509 20.5006 27 22 27C23.4994 27 30 33.3509 30 40.1842Z" fill="url(#paint4_linear_5_4321)" fill-opacity="0.5"/>
<defs>
<linearGradient id="paint0_linear_5_4321" x1="40.9097" y1="57.0736" x2="30.8295" y2="70.7337" gradientUnits="userSpaceOnUse">
<stop stop-color="#8DD5FE" stop-opacity="0"/>
<stop offset="1" stop-color="#026C99"/>
</linearGradient>
<linearGradient id="paint1_linear_5_4321" x1="68.9097" y1="57.0736" x2="58.8295" y2="70.7337" gradientUnits="userSpaceOnUse">
<stop stop-color="#8DD5FE" stop-opacity="0"/>
<stop offset="1" stop-color="#026C99"/>
</linearGradient>
<linearGradient id="paint2_linear_5_4321" x1="54.9097" y1="32.0736" x2="44.8295" y2="45.7337" gradientUnits="userSpaceOnUse">
<stop stop-color="#8DD5FE" stop-opacity="0"/>
<stop offset="1" stop-color="#026C99"/>
</linearGradient>
<linearGradient id="paint3_linear_5_4321" x1="82.9097" y1="32.0736" x2="72.8295" y2="45.7337" gradientUnits="userSpaceOnUse">
<stop stop-color="#8DD5FE" stop-opacity="0"/>
<stop offset="1" stop-color="#026C99"/>
</linearGradient>
<linearGradient id="paint4_linear_5_4321" x1="26.9097" y1="32.0736" x2="16.8295" y2="45.7337" gradientUnits="userSpaceOnUse">
<stop stop-color="#8DD5FE" stop-opacity="0"/>
<stop offset="1" stop-color="#026C99"/>
</linearGradient>
</defs>
</svg>
