<svg width="100" height="100" viewBox="0 0 100 100" fill="none" xmlns="http://www.w3.org/2000/svg">
<path d="M80 20C72.1207 20 64.3185 21.5519 57.039 24.5672C49.7595 27.5825 43.1451 32.0021 37.5736 37.5736C32.0021 43.1451 27.5825 49.7595 24.5672 57.039C21.5519 64.3185 20 72.1207 20 80L27.5051 80C27.5051 73.1063 28.8629 66.28 31.501 59.9111C34.1391 53.5421 38.0059 47.7551 42.8805 42.8805C47.7551 38.0059 53.5421 34.1391 59.9111 31.501C66.28 28.8629 73.1063 27.5051 80 27.5051V20Z" fill="#E00101"/>
<path d="M80 27.5C73.1056 27.5 66.2787 28.858 59.9091 31.4963C53.5395 34.1347 47.752 38.0018 42.8769 42.8769C38.0018 47.752 34.1347 53.5395 31.4963 59.9091C28.858 66.2787 27.5 73.1056 27.5 80H34.9992C34.9992 74.0904 36.1632 68.2387 38.4247 62.7789C40.6862 57.3192 44.0009 52.3583 48.1796 48.1796C52.3583 44.0009 57.3192 40.6862 62.7789 38.4247C68.2387 36.1632 74.0904 34.9992 80 34.9992V27.5Z" fill="#E06C01"/>
<path d="M80 35C74.0905 35 68.2389 36.164 62.7792 38.4254C57.3196 40.6869 52.3588 44.0016 48.1802 48.1802C44.0016 52.3588 40.6869 57.3196 38.4254 62.7793C36.164 68.2389 35 74.0905 35 80H42.5009C42.5009 75.0756 43.4709 70.1993 45.3554 65.6497C47.2399 61.1001 50.002 56.9663 53.4842 53.4842C56.9663 50.0021 61.1001 47.2399 65.6497 45.3554C70.1993 43.4709 75.0756 42.5009 80 42.5009V35Z" fill="#FCFC07"/>
<path d="M80 42.5C75.0754 42.5 70.1991 43.47 65.6494 45.3545C61.0997 47.2391 56.9657 50.0013 53.4835 53.4835C50.0013 56.9657 47.2391 61.0997 45.3545 65.6494C43.47 70.1991 42.5 75.0754 42.5 80H49.9998C49.9998 76.0603 50.7757 72.1592 52.2834 68.5194C53.791 64.8796 56.0008 61.5724 58.7866 58.7866C61.5724 56.0008 64.8796 53.791 68.5194 52.2834C72.1592 50.7757 76.0603 49.9998 80 49.9998V42.5Z" fill="#20E001"/>
<path d="M50 80C50 72.0435 53.1607 64.4129 58.7868 58.7868C64.4129 53.1607 72.0435 50 80 50V57.5023C74.0332 57.5023 68.3108 59.8726 64.0917 64.0917C59.8726 68.3108 57.5023 74.0332 57.5023 80H50Z" fill="#01E0D3"/>
<path d="M57.5 80C57.5 74.0326 59.8705 68.3097 64.0901 64.0901C68.3097 59.8705 74.0326 57.5 80 57.5V65.0004C76.0218 65.0004 72.2066 66.5807 69.3937 69.3937C66.5807 72.2066 65.0004 76.0218 65.0004 80H57.5Z" fill="#0501E0"/>
<path d="M65 80C65 76.0218 66.5804 72.2064 69.3934 69.3934C72.2064 66.5804 76.0218 65 80 65V72.5006C78.011 72.5006 76.1036 73.2907 74.6971 74.6971C73.2907 76.1036 72.5006 78.011 72.5006 80L65 80Z" fill="#A601E0"/>
</svg>
