<svg width="100" height="100" viewBox="0 0 100 100" fill="none" xmlns="http://www.w3.org/2000/svg">
<path d="M78.125 32.3594C74.8863 32.0974 71.7479 31.1111 68.9416 29.4733C66.1353 27.8354 63.733 25.588 61.912 22.897C60.0909 20.206 58.8979 17.1402 58.4209 13.9262C57.9439 10.7121 58.1952 7.43198 59.1562 4.3281C59.2052 4.15143 59.2013 3.96426 59.145 3.78978C59.0887 3.61529 58.9825 3.46114 58.8395 3.3464C58.6965 3.23167 58.523 3.16138 58.3404 3.14424C58.1579 3.1271 57.9743 3.16387 57.8124 3.24998C54.9061 4.89771 52.4197 7.19464 50.5472 9.96158C48.6748 12.7285 47.4669 15.8906 47.0179 19.2013C46.5688 22.5119 46.8907 25.8816 47.9584 29.0473C49.0261 32.2131 50.8108 35.0893 53.1732 37.4518C55.5356 39.8142 58.4119 41.5989 61.5776 42.6666C64.7434 43.7343 68.113 44.0561 71.4236 43.6071C74.7343 43.158 77.8964 41.9501 80.6634 40.0777C83.4303 38.2052 85.7272 35.7188 87.3749 32.8125C87.4766 32.6498 87.526 32.4599 87.5163 32.2683C87.5066 32.0767 87.4384 31.8928 87.3209 31.7412C87.2034 31.5896 87.0422 31.4777 86.859 31.4206C86.6759 31.3635 86.4797 31.3639 86.2968 31.4219C83.6574 32.2517 80.8838 32.5698 78.125 32.3594Z" fill="#FCFC07"/>
<path d="M36.9687 24.8438C41.9415 24.8422 46.8203 26.1975 51.0798 28.7636C55.3392 31.3297 58.8178 35.0094 61.1406 39.4063C63.9938 37.7382 67.1933 36.7508 70.4903 36.521C73.7873 36.2912 77.0928 36.8252 80.1498 38.0813C83.2068 39.3375 85.9327 41.282 88.1156 43.7635C90.2985 46.245 91.8794 49.1967 92.7354 52.389C93.5914 55.5812 93.6994 58.9278 93.0509 62.1686C92.4025 65.4094 91.0151 68.4568 88.9968 71.0739C86.9784 73.691 84.3835 75.8072 81.4138 77.2578C78.4442 78.7084 75.1799 79.4543 71.875 79.4375L36.8906 79.5313C29.6386 79.5313 22.6836 76.6504 17.5557 71.5224C12.4277 66.3945 9.54688 59.4395 9.54688 52.1875C9.54687 44.9355 12.4277 37.9805 17.5557 32.8526C22.6836 27.7246 29.6386 24.8438 36.8906 24.8438H36.9687Z" fill="url(#paint0_linear_1_266)"/>
<path d="M92.6504 63.7327C95.8433 52.3049 89.1675 40.4525 77.7397 37.2596C66.3118 34.0668 54.4594 40.7425 51.2665 52.1704C48.0737 63.5982 54.7494 75.4506 66.1773 78.6435C77.6051 81.8364 89.4576 75.1606 92.6504 63.7327Z" fill="url(#paint1_linear_1_266)"/>
<path d="M41.4062 93.1719C43.1321 93.1719 44.5312 91.7728 44.5312 90.0469C44.5312 88.321 43.1321 86.9219 41.4062 86.9219C39.6804 86.9219 38.2812 88.321 38.2812 90.0469C38.2812 91.7728 39.6804 93.1719 41.4062 93.1719Z" fill="#C4C4C4"/>
<path d="M57.0312 97.0781C58.3257 97.0781 59.375 96.0288 59.375 94.7344C59.375 93.44 58.3257 92.3906 57.0312 92.3906C55.7368 92.3906 54.6875 93.44 54.6875 94.7344C54.6875 96.0288 55.7368 97.0781 57.0312 97.0781Z" fill="#E0E0E0"/>
<path d="M28.9062 86.1406C30.2007 86.1406 31.25 85.0913 31.25 83.7969C31.25 82.5025 30.2007 81.4531 28.9062 81.4531C27.6118 81.4531 26.5625 82.5025 26.5625 83.7969C26.5625 85.0913 27.6118 86.1406 28.9062 86.1406Z" fill="#E0E0E0"/>
<path d="M50.7812 85.3594C51.6442 85.3594 52.3438 84.6598 52.3438 83.7969C52.3438 82.9339 51.6442 82.2344 50.7812 82.2344C49.9183 82.2344 49.2188 82.9339 49.2188 83.7969C49.2188 84.6598 49.9183 85.3594 50.7812 85.3594Z" fill="white"/>
<path d="M72.6562 96.2969C73.5192 96.2969 74.2188 95.5973 74.2188 94.7344C74.2188 93.8714 73.5192 93.1719 72.6562 93.1719C71.7933 93.1719 71.0938 93.8714 71.0938 94.7344C71.0938 95.5973 71.7933 96.2969 72.6562 96.2969Z" fill="white"/>
<path d="M27.3438 96.2969C28.2067 96.2969 28.9062 95.5973 28.9062 94.7344C28.9062 93.8714 28.2067 93.1719 27.3438 93.1719C26.4808 93.1719 25.7812 93.8714 25.7812 94.7344C25.7812 95.5973 26.4808 96.2969 27.3438 96.2969Z" fill="white"/>
<path d="M66.4062 88.4844C68.1321 88.4844 69.5312 87.0853 69.5312 85.3594C69.5312 83.6335 68.1321 82.2344 66.4062 82.2344C64.6804 82.2344 63.2812 83.6335 63.2812 85.3594C63.2812 87.0853 64.6804 88.4844 66.4062 88.4844Z" fill="#C4C4C4"/>
<defs>
<linearGradient id="paint0_linear_1_266" x1="30.0781" y1="81.8594" x2="63.0313" y2="39.1875" gradientUnits="userSpaceOnUse">
<stop stop-color="#F2F2F2"/>
<stop offset="1" stop-color="#CFCFCF"/>
</linearGradient>
<linearGradient id="paint1_linear_1_266" x1="80.7328" y1="50.2959" x2="55.8403" y2="71.9754" gradientUnits="userSpaceOnUse">
<stop offset="0.02" stop-color="white"/>
<stop offset="1" stop-color="white" stop-opacity="0"/>
</linearGradient>
</defs>
</svg>
