<svg width="100" height="100" viewBox="0 0 100 100" fill="none" xmlns="http://www.w3.org/2000/svg">
<path d="M58.5625 34.7151L44.987 39.4308C44.9956 39.2883 45 39.1447 45 39C45 35.134 41.866 32 38 32C34.134 32 31 35.134 31 39C31 40.7942 31.675 42.4307 32.7849 43.6695L19.2088 48.3854C17.7954 45.5609 17 42.3733 17 39C17 27.402 26.402 18 38 18C48.1296 18 56.5841 25.172 58.5625 34.7151Z" fill="#E00101"/>
<path d="M56.6551 35.3777L44.987 39.4308C44.9956 39.2883 45 39.1447 45 39C45 35.134 41.866 32 38 32C34.134 32 31 35.134 31 39C31 40.7942 31.675 42.4307 32.7849 43.6695L21.1162 47.7228C19.7639 45.1106 19 42.1445 19 39C19 28.5066 27.5066 20 38 20C47.2547 20 54.964 26.6168 56.6551 35.3777Z" fill="#E06C01"/>
<path d="M54.7435 36.0417L44.987 39.4308C44.9956 39.2883 45 39.1447 45 39C45 35.134 41.866 32 38 32C34.134 32 31 35.134 31 39C31 40.7942 31.675 42.4307 32.7849 43.6695L23.0278 47.0588C21.7342 44.6605 21 41.916 21 39C21 29.6112 28.6112 22 38 22C46.3798 22 53.3435 28.0631 54.7435 36.0417Z" fill="#FCFC07"/>
<path d="M52.826 36.7078L44.987 39.4308C44.9956 39.2883 45 39.1447 45 39C45 35.134 41.866 32 38 32C34.134 32 31 35.134 31 39C31 40.7942 31.675 42.4307 32.7849 43.6695L24.9453 46.3927C23.707 44.2108 23 41.688 23 39C23 30.7157 29.7157 24 38 24C45.5049 24 51.7225 29.5116 52.826 36.7078Z" fill="#20E001"/>
<path d="M50.8997 37.377L44.987 39.4308C44.9956 39.2883 45 39.1447 45 39C45 35.134 41.866 32 38 32C34.134 32 31 35.134 31 39C31 40.7942 31.675 42.4307 32.7849 43.6695L26.8715 45.7236C25.6837 43.7618 25 41.4607 25 39C25 31.8203 30.8203 26 38 26C44.6301 26 50.1009 30.9633 50.8997 37.377Z" fill="#01E0D3"/>
<path d="M48.9596 38.0509L44.987 39.4308C44.9956 39.2883 45 39.1447 45 39C45 35.134 41.866 32 38 32C34.134 32 31 35.134 31 39C31 40.7942 31.675 42.4307 32.7849 43.6695L28.8115 45.0497C27.6665 43.3141 27 41.2349 27 39C27 32.9249 31.9249 28 38 28C43.7554 28 48.4784 32.4201 48.9596 38.0509Z" fill="#0501E0"/>
<path d="M46.9961 38.7329C46.8549 33.8859 42.8812 30 38 30C33.0294 30 29 34.0294 29 39C29 41.0116 29.6599 42.869 30.7751 44.3676L32.7849 43.6695C31.675 42.4307 31 40.7942 31 39C31 35.134 34.134 32 38 32C41.866 32 45 35.134 45 39C45 39.1447 44.9956 39.2883 44.987 39.4308L46.9961 38.7329Z" fill="#A601E0"/>
<path d="M64.5312 29.5313C59.5585 29.5297 54.6796 30.885 50.4202 33.4511C46.1607 36.0172 42.6822 39.6969 40.3593 44.0938C37.509 42.4272 34.313 41.4401 31.0193 41.209C27.7257 40.9778 24.4231 41.509 21.368 42.761C18.3129 44.0131 15.5875 45.9525 13.4034 48.4286C11.2192 50.9047 9.63522 53.8509 8.77427 57.0384C7.91332 60.226 7.79861 63.569 8.43906 66.808C9.07951 70.0471 10.4579 73.0949 12.4671 75.7149C14.4764 78.3349 17.0625 80.4565 20.0246 81.9151C22.9867 83.3736 26.2451 84.1298 29.5468 84.125L64.5312 84.2188C71.7832 84.2188 78.7382 81.3379 83.8661 76.2099C88.9941 71.082 91.8749 64.127 91.8749 56.875C91.8749 49.623 88.9941 42.668 83.8661 37.5401C78.7382 32.4121 71.7832 29.5313 64.5312 29.5313Z" fill="url(#paint0_linear_7_4725)"/>
<path d="M35.3435 83.3328C46.7714 80.14 53.4472 68.2875 50.2543 56.8597C47.0614 45.4319 35.209 38.7561 23.7812 41.9489C12.3533 45.1418 5.67756 56.9942 8.87042 68.4221C12.0633 79.8499 23.9157 86.5257 35.3435 83.3328Z" fill="url(#paint1_linear_7_4725)"/>
<defs>
<linearGradient id="paint0_linear_7_4725" x1="71.4374" y1="86.5469" x2="38.4843" y2="43.875" gradientUnits="userSpaceOnUse">
<stop stop-color="#F2F2F2"/>
<stop offset="1" stop-color="#CFCFCF"/>
</linearGradient>
<linearGradient id="paint1_linear_7_4725" x1="20.773" y1="54.9894" x2="45.6655" y2="76.6689" gradientUnits="userSpaceOnUse">
<stop offset="0.02" stop-color="white"/>
<stop offset="1" stop-color="white" stop-opacity="0"/>
</linearGradient>
</defs>
</svg>
