<svg width="100" height="100" viewBox="0 0 100 100" fill="none" xmlns="http://www.w3.org/2000/svg">
<path d="M57.0312 96.2656C58.3257 96.2656 59.375 95.2163 59.375 93.9219C59.375 92.6275 58.3257 91.5781 57.0312 91.5781C55.7368 91.5781 54.6875 92.6275 54.6875 93.9219C54.6875 95.2163 55.7368 96.2656 57.0312 96.2656Z" fill="#E0E0E0"/>
<path d="M28.9062 85.3281C30.2007 85.3281 31.25 84.2788 31.25 82.9844C31.25 81.69 30.2007 80.6406 28.9062 80.6406C27.6118 80.6406 26.5625 81.69 26.5625 82.9844C26.5625 84.2788 27.6118 85.3281 28.9062 85.3281Z" fill="#E0E0E0"/>
<path d="M50.7812 84.5469C51.6442 84.5469 52.3438 83.8473 52.3438 82.9844C52.3438 82.1214 51.6442 81.4219 50.7812 81.4219C49.9183 81.4219 49.2188 82.1214 49.2188 82.9844C49.2188 83.8473 49.9183 84.5469 50.7812 84.5469Z" fill="white"/>
<path d="M72.6562 95.4844C73.5192 95.4844 74.2188 94.7848 74.2188 93.9219C74.2188 93.0589 73.5192 92.3594 72.6562 92.3594C71.7933 92.3594 71.0938 93.0589 71.0938 93.9219C71.0938 94.7848 71.7933 95.4844 72.6562 95.4844Z" fill="white"/>
<path d="M27.3438 95.4844C28.2067 95.4844 28.9062 94.7848 28.9062 93.9219C28.9062 93.0589 28.2067 92.3594 27.3438 92.3594C26.4808 92.3594 25.7812 93.0589 25.7812 93.9219C25.7812 94.7848 26.4808 95.4844 27.3438 95.4844Z" fill="white"/>
<path d="M66.4062 87.6719C68.1321 87.6719 69.5312 86.2728 69.5312 84.5469C69.5312 82.821 68.1321 81.4219 66.4062 81.4219C64.6804 81.4219 63.2812 82.821 63.2812 84.5469C63.2812 86.2728 64.6804 87.6719 66.4062 87.6719Z" fill="#C4C4C4"/>
<path d="M78.125 32.3594C74.8864 32.0974 71.7479 31.1111 68.9417 29.4733C66.1354 27.8354 63.733 25.588 61.912 22.897C60.091 20.206 58.8979 17.1402 58.4209 13.9262C57.944 10.7121 58.1953 7.43198 59.1563 4.3281C59.2052 4.15143 59.2013 3.96426 59.1451 3.78978C59.0888 3.61529 58.9825 3.46114 58.8395 3.3464C58.6965 3.23167 58.523 3.16138 58.3405 3.14424C58.1579 3.1271 57.9744 3.16387 57.8125 3.24998C54.9061 4.89771 52.4198 7.19464 50.5473 9.96158C48.6749 12.7285 47.467 15.8906 47.0179 19.2013C46.5688 22.5119 46.8907 25.8816 47.9584 29.0473C49.0261 32.2131 50.8108 35.0893 53.1732 37.4518C55.5356 39.8142 58.4119 41.5989 61.5777 42.6666C64.7434 43.7343 68.1131 44.0561 71.4237 43.6071C74.7343 43.158 77.8965 41.9501 80.6634 40.0777C83.4304 38.2052 85.7273 35.7188 87.375 32.8125C87.4767 32.6498 87.526 32.4599 87.5163 32.2683C87.5067 32.0767 87.4385 31.8928 87.3209 31.7412C87.2034 31.5896 87.0422 31.4777 86.8591 31.4206C86.676 31.3635 86.4797 31.3639 86.2969 31.4219C83.6574 32.2517 80.8838 32.5698 78.125 32.3594Z" fill="#FCFC07"/>
<path d="M36.9687 24.8438C41.9415 24.8422 46.8203 26.1975 51.0798 28.7636C55.3392 31.3297 58.8178 35.0094 61.1406 39.4063C63.9938 37.7382 67.1933 36.7508 70.4903 36.521C73.7873 36.2912 77.0928 36.8252 80.1498 38.0813C83.2068 39.3375 85.9327 41.282 88.1156 43.7635C90.2985 46.245 91.8794 49.1967 92.7354 52.389C93.5914 55.5812 93.6994 58.9278 93.0509 62.1686C92.4025 65.4094 91.0151 68.4568 88.9968 71.0739C86.9784 73.691 84.3835 75.8072 81.4138 77.2578C78.4442 78.7084 75.1799 79.4543 71.875 79.4375L36.8906 79.5313C29.6386 79.5313 22.6836 76.6504 17.5557 71.5224C12.4277 66.3945 9.54688 59.4395 9.54688 52.1875C9.54687 44.9355 12.4277 37.9805 17.5557 32.8526C22.6836 27.7246 29.6386 24.8438 36.8906 24.8438H36.9687Z" fill="url(#paint0_linear_10_5152)"/>
<path d="M92.6505 63.7327C95.8433 52.3049 89.1676 40.4525 77.7397 37.2596C66.3119 34.0668 54.4595 40.7425 51.2666 52.1704C48.0737 63.5982 54.7495 75.4506 66.1774 78.6435C77.6052 81.8364 89.4576 75.1606 92.6505 63.7327Z" fill="url(#paint1_linear_10_5152)"/>
<path d="M41.4062 92.3594C43.1321 92.3594 44.5312 90.9603 44.5312 89.2344C44.5312 87.5085 43.1321 86.1094 41.4062 86.1094C39.6804 86.1094 38.2812 87.5085 38.2812 89.2344C38.2812 90.9603 39.6804 92.3594 41.4062 92.3594Z" fill="#C4C4C4"/>
<path d="M54.0677 45C55.115 45.0126 56.1151 45.4373 56.8512 46.1821C57.5873 46.9269 58.0001 47.9318 58 48.9788C58 50.034 57.5807 51.046 56.8343 51.7922C56.0878 52.5384 55.0755 52.9576 54.0199 52.9576H39.7761C38.5094 52.9576 37.2946 53.4606 36.3989 54.356C35.5032 55.2514 35 56.4658 35 57.7321C35 58.9984 35.5032 60.2128 36.3989 61.1082C37.2946 62.0036 38.5094 62.5066 39.7761 62.5066H52.0299C52.8743 62.5066 53.6842 62.842 54.2813 63.4389C54.8785 64.0358 55.2139 64.8455 55.2139 65.6897V65.817C55.2139 66.6612 54.8785 67.4708 54.2813 68.0677C53.6842 68.6646 52.8743 69 52.0299 69H49.2438" stroke="#A5A9AA" stroke-width="3" stroke-miterlimit="10" stroke-linecap="round"/>
<path d="M64.25 64.25C65.0788 64.25 65.8737 63.9208 66.4597 63.3347C67.0458 62.7487 67.375 61.9538 67.375 61.125C67.375 60.2962 67.0458 59.5013 66.4597 58.9153C65.8737 58.3292 65.0788 58 64.25 58H58" stroke="#A5A9AA" stroke-width="3" stroke-miterlimit="10" stroke-linecap="round"/>
<defs>
<linearGradient id="paint0_linear_10_5152" x1="30.0781" y1="81.8594" x2="63.0313" y2="39.1875" gradientUnits="userSpaceOnUse">
<stop stop-color="#F2F2F2"/>
<stop offset="1" stop-color="#CFCFCF"/>
</linearGradient>
<linearGradient id="paint1_linear_10_5152" x1="80.7286" y1="50.3109" x2="55.8362" y2="71.9904" gradientUnits="userSpaceOnUse">
<stop offset="0.02" stop-color="white"/>
<stop offset="1" stop-color="white" stop-opacity="0"/>
</linearGradient>
</defs>
</svg>
