<svg width="100" height="100" viewBox="0 0 100 100" fill="none" xmlns="http://www.w3.org/2000/svg">
<path d="M63 5L63 9" stroke="#FCFC07" stroke-width="3" stroke-miterlimit="10" stroke-linecap="round"/>
<path d="M63 53C74.0457 53 83 44.0457 83 33C83 21.9543 74.0457 13 63 13C51.9543 13 43 21.9543 43 33C43 44.0457 51.9543 53 63 53Z" fill="#FCFC07"/>
<path d="M91 33L87 33" stroke="#FCFC07" stroke-width="3" stroke-miterlimit="10" stroke-linecap="round"/>
<path d="M83.5 13L80 16.5" stroke="#FCFC07" stroke-width="3" stroke-miterlimit="10" stroke-linecap="round"/>
<path d="M46.5 16.5L43 13" stroke="#FCFC07" stroke-width="3" stroke-miterlimit="10" stroke-linecap="round"/>
<path d="M36.7188 24.8437C41.6994 24.8336 46.5881 26.1849 50.8566 28.7515C55.125 31.3181 58.6109 35.0024 60.9375 39.4062C63.7878 37.7397 66.9838 36.7526 70.2775 36.5215C73.5711 36.2903 76.8737 36.8214 79.9288 38.0735C82.9839 39.3256 85.7093 41.265 87.8935 43.7411C90.0776 46.2172 91.6616 49.1634 92.5225 52.3509C93.3835 55.5384 93.4982 58.8815 92.8578 62.1205C92.2173 65.3595 90.8389 68.4074 88.8297 71.0274C86.8204 73.6474 84.2344 75.769 81.2722 77.2276C78.3102 78.6861 75.0517 79.4423 71.75 79.4375L36.7188 79.5312C29.4667 79.5312 22.5117 76.6504 17.3838 71.5224C12.2559 66.3945 9.375 59.4395 9.375 52.1875C9.375 44.9355 12.2559 37.9805 17.3838 32.8525C22.5117 27.7246 29.4667 24.8437 36.7188 24.8437Z" fill="url(#paint0_linear_10_5151)"/>
<path d="M92.3957 63.7235C95.5886 52.2957 88.9128 40.4433 77.485 37.2504C66.0571 34.0575 54.2047 40.7333 51.0118 52.1612C47.819 63.589 54.4947 75.4414 65.9226 78.6343C77.3504 81.8271 89.2029 75.1514 92.3957 63.7235Z" fill="url(#paint1_linear_10_5151)"/>
<path d="M41.4062 92.3594C43.1321 92.3594 44.5312 90.9603 44.5312 89.2344C44.5312 87.5085 43.1321 86.1094 41.4062 86.1094C39.6804 86.1094 38.2812 87.5085 38.2812 89.2344C38.2812 90.9603 39.6804 92.3594 41.4062 92.3594Z" fill="#C4C4C4"/>
<path d="M54.0677 45C55.115 45.0126 56.1151 45.4373 56.8512 46.1821C57.5873 46.9269 58.0001 47.9318 58 48.9788C58 50.034 57.5807 51.046 56.8343 51.7922C56.0878 52.5384 55.0755 52.9576 54.0199 52.9576H39.7761C38.5094 52.9576 37.2946 53.4606 36.3989 54.356C35.5032 55.2514 35 56.4658 35 57.7321C35 58.9984 35.5032 60.2128 36.3989 61.1082C37.2946 62.0036 38.5094 62.5066 39.7761 62.5066H52.0299C52.8743 62.5066 53.6842 62.842 54.2813 63.4389C54.8785 64.0358 55.2139 64.8455 55.2139 65.6897V65.817C55.2139 66.6612 54.8785 67.4708 54.2813 68.0677C53.6842 68.6646 52.8743 69 52.0299 69H49.2438" stroke="#A5A9AA" stroke-width="3" stroke-miterlimit="10" stroke-linecap="round"/>
<path d="M64.25 64.25C65.0788 64.25 65.8737 63.9208 66.4597 63.3347C67.0458 62.7487 67.375 61.9538 67.375 61.125C67.375 60.2962 67.0458 59.5013 66.4597 58.9153C65.8737 58.3292 65.0788 58 64.25 58H58" stroke="#A5A9AA" stroke-width="3" stroke-miterlimit="10" stroke-linecap="round"/>
<path d="M57.0312 96.2656C58.3257 96.2656 59.375 95.2163 59.375 93.9219C59.375 92.6275 58.3257 91.5781 57.0312 91.5781C55.7368 91.5781 54.6875 92.6275 54.6875 93.9219C54.6875 95.2163 55.7368 96.2656 57.0312 96.2656Z" fill="#E0E0E0"/>
<path d="M28.9062 85.3281C30.2007 85.3281 31.25 84.2788 31.25 82.9844C31.25 81.69 30.2007 80.6406 28.9062 80.6406C27.6118 80.6406 26.5625 81.69 26.5625 82.9844C26.5625 84.2788 27.6118 85.3281 28.9062 85.3281Z" fill="#E0E0E0"/>
<path d="M50.7812 84.5469C51.6442 84.5469 52.3438 83.8473 52.3438 82.9844C52.3438 82.1214 51.6442 81.4219 50.7812 81.4219C49.9183 81.4219 49.2188 82.1214 49.2188 82.9844C49.2188 83.8473 49.9183 84.5469 50.7812 84.5469Z" fill="white"/>
<path d="M72.6562 95.4844C73.5192 95.4844 74.2188 94.7848 74.2188 93.9219C74.2188 93.0589 73.5192 92.3594 72.6562 92.3594C71.7933 92.3594 71.0938 93.0589 71.0938 93.9219C71.0938 94.7848 71.7933 95.4844 72.6562 95.4844Z" fill="white"/>
<path d="M27.3438 95.4844C28.2067 95.4844 28.9062 94.7848 28.9062 93.9219C28.9062 93.0589 28.2067 92.3594 27.3438 92.3594C26.4808 92.3594 25.7812 93.0589 25.7812 93.9219C25.7812 94.7848 26.4808 95.4844 27.3438 95.4844Z" fill="white"/>
<path d="M66.4062 87.6719C68.1321 87.6719 69.5312 86.2728 69.5312 84.5469C69.5312 82.821 68.1321 81.4219 66.4062 81.4219C64.6804 81.4219 63.2812 82.821 63.2812 84.5469C63.2812 86.2728 64.6804 87.6719 66.4062 87.6719Z" fill="#C4C4C4"/>
<defs>
<linearGradient id="paint0_linear_10_5151" x1="29.8125" y1="81.8594" x2="62.7656" y2="39.1875" gradientUnits="userSpaceOnUse">
<stop stop-color="#F2F2F2"/>
<stop offset="1" stop-color="#CFCFCF"/>
</linearGradient>
<linearGradient id="paint1_linear_10_5151" x1="80.4889" y1="50.3059" x2="55.5856" y2="71.9661" gradientUnits="userSpaceOnUse">
<stop offset="0.02" stop-color="white"/>
<stop offset="1" stop-color="white" stop-opacity="0"/>
</linearGradient>
</defs>
</svg>
