<svg width="100" height="100" viewBox="0 0 100 100" fill="none" xmlns="http://www.w3.org/2000/svg">
<path d="M75 39L39 39" stroke="#B9C1C6" stroke-width="3" stroke-miterlimit="10" stroke-linecap="round"/>
<path d="M63 47L82 47" stroke="#B9C1C6" stroke-width="3" stroke-miterlimit="10" stroke-linecap="round"/>
<path d="M11 55H89" stroke="#B9C1C6" stroke-width="3" stroke-miterlimit="10" stroke-linecap="round"/>
<path d="M57 63H89" stroke="#A5A9AA" stroke-width="3" stroke-miterlimit="10" stroke-linecap="round"/>
<path d="M11 63H45" stroke="#B9C1C6" stroke-width="3" stroke-miterlimit="10" stroke-linecap="round"/>
<path d="M46 71H82" stroke="#A5A9AA" stroke-width="3" stroke-miterlimit="10" stroke-linecap="round"/>
<path d="M23 79L75 79" stroke="#A5A9AA" stroke-width="3" stroke-miterlimit="10" stroke-linecap="round"/>
<path d="M16 71L36 71" stroke="#A5A9AA" stroke-width="3" stroke-miterlimit="10" stroke-linecap="round"/>
<path d="M35 47L53 47" stroke="#B9C1C6" stroke-width="3" stroke-miterlimit="10" stroke-linecap="round"/>
<path d="M31 38.584C31 41.3465 29.9464 43.9958 28.0711 45.9492C26.1957 47.9026 23.6522 49 21 49C18.3478 49 15.8043 47.9026 13.9289 45.9492C12.0536 43.9958 11 41.3465 11 38.584C11 29.456 19.0645 21 21 21C22.9355 21 31 29.4 31 38.584Z" fill="#75D1FF"/>
<path d="M31 38.584C31 41.3465 29.9464 43.9958 28.0711 45.9492C26.1957 47.9026 23.6522 49 21 49C18.3478 49 15.8043 47.9026 13.9289 45.9492C12.0536 43.9958 11 41.3465 11 38.584C11 29.456 19.0645 21 21 21C22.9355 21 31 29.4 31 38.584Z" fill="url(#paint0_linear_7_4770)" fill-opacity="0.5"/>
<defs>
<linearGradient id="paint0_linear_7_4770" x1="27.1371" y1="27.7648" x2="13.4649" y2="45.1346" gradientUnits="userSpaceOnUse">
<stop stop-color="#8DD5FE" stop-opacity="0"/>
<stop offset="1" stop-color="#026C99"/>
</linearGradient>
</defs>
</svg>
