<svg width="100" height="100" viewBox="0 0 100 100" fill="none" xmlns="http://www.w3.org/2000/svg">
<path d="M75 39L39 39" stroke="#B9C1C6" stroke-width="3" stroke-miterlimit="10" stroke-linecap="round"/>
<path d="M63 47L82 47" stroke="#B9C1C6" stroke-width="3" stroke-miterlimit="10" stroke-linecap="round"/>
<path d="M11 55H89" stroke="#B9C1C6" stroke-width="3" stroke-miterlimit="10" stroke-linecap="round"/>
<path d="M57 63H89" stroke="#A5A9AA" stroke-width="3" stroke-miterlimit="10" stroke-linecap="round"/>
<path d="M11 63H45" stroke="#B9C1C6" stroke-width="3" stroke-miterlimit="10" stroke-linecap="round"/>
<path d="M46 71H82" stroke="#A5A9AA" stroke-width="3" stroke-miterlimit="10" stroke-linecap="round"/>
<path d="M23 79L75 79" stroke="#A5A9AA" stroke-width="3" stroke-miterlimit="10" stroke-linecap="round"/>
<path d="M16 71L36 71" stroke="#A5A9AA" stroke-width="3" stroke-miterlimit="10" stroke-linecap="round"/>
<path d="M31 47L53 47" stroke="#B9C1C6" stroke-width="3" stroke-miterlimit="10" stroke-linecap="round"/>
<path d="M21.0314 23.3613V41.6207" stroke="#0BAEFF" stroke-width="2" stroke-miterlimit="10" stroke-linecap="round"/>
<path d="M23.1403 21L21.0314 23.6497L18.9044 21" stroke="#0BAEFF" stroke-width="2" stroke-miterlimit="10" stroke-linecap="round"/>
<path d="M18.9044 44L21.0314 41.3503L23.1403 44" stroke="#0BAEFF" stroke-width="2" stroke-miterlimit="10" stroke-linecap="round"/>
<path d="M28.9263 27.9216L13.1183 37.0603" stroke="#0BAEFF" stroke-width="2" stroke-miterlimit="10" stroke-linecap="round"/>
<path d="M32.0447 28.5886L28.692 28.0659L29.9177 24.9115" stroke="#0BAEFF" stroke-width="2" stroke-miterlimit="10" stroke-linecap="round"/>
<path d="M10 36.4115L13.3527 36.9162L12.127 40.0886" stroke="#0BAEFF" stroke-width="2" stroke-miterlimit="10" stroke-linecap="round"/>
<path d="M28.9263 37.0603L13.1183 27.9216" stroke="#0BAEFF" stroke-width="2" stroke-miterlimit="10" stroke-linecap="round"/>
<path d="M29.9177 40.0886L28.692 36.9162L32.0447 36.4115" stroke="#0BAEFF" stroke-width="2" stroke-miterlimit="10" stroke-linecap="round"/>
<path d="M12.127 24.9115L13.3527 28.0659L10 28.5886" stroke="#0BAEFF" stroke-width="2" stroke-miterlimit="10" stroke-linecap="round"/>
</svg>
