<svg width="100" height="100" viewBox="0 0 100 100" fill="none" xmlns="http://www.w3.org/2000/svg">
<path d="M75 39L48 39" stroke="#B9C1C6" stroke-width="3" stroke-miterlimit="10" stroke-linecap="round"/>
<path d="M63 47L82 47" stroke="#B9C1C6" stroke-width="3" stroke-miterlimit="10" stroke-linecap="round"/>
<path d="M11 55H89" stroke="#B9C1C6" stroke-width="3" stroke-miterlimit="10" stroke-linecap="round"/>
<path d="M57 63H89" stroke="#A5A9AA" stroke-width="3" stroke-miterlimit="10" stroke-linecap="round"/>
<path d="M11 63H45" stroke="#B9C1C6" stroke-width="3" stroke-miterlimit="10" stroke-linecap="round"/>
<path d="M46 71H82" stroke="#A5A9AA" stroke-width="3" stroke-miterlimit="10" stroke-linecap="round"/>
<path d="M23 79L75 79" stroke="#A5A9AA" stroke-width="3" stroke-miterlimit="10" stroke-linecap="round"/>
<path d="M16 71L36 71" stroke="#A5A9AA" stroke-width="3" stroke-miterlimit="10" stroke-linecap="round"/>
<path d="M43 47H53" stroke="#B9C1C6" stroke-width="3" stroke-miterlimit="10" stroke-linecap="round"/>
<path d="M26 46C31.5228 46 36 41.5228 36 36C36 30.4772 31.5228 26 26 26C20.4772 26 16 30.4772 16 36C16 41.5228 20.4772 46 26 46Z" fill="#FCFC07"/>
<path d="M26 21L26 23.1429" stroke="#FCFC07" stroke-width="3" stroke-miterlimit="10" stroke-linecap="round"/>
<path d="M26 48.8572L26 51" stroke="#FCFC07" stroke-width="3" stroke-miterlimit="10" stroke-linecap="round"/>
<path d="M41 36L38.8571 36" stroke="#FCFC07" stroke-width="3" stroke-miterlimit="10" stroke-linecap="round"/>
<path d="M13.1429 36H11" stroke="#FCFC07" stroke-width="3" stroke-miterlimit="10" stroke-linecap="round"/>
<path d="M36.9821 25.2858L35.1071 27.1608" stroke="#FCFC07" stroke-width="3" stroke-miterlimit="10" stroke-linecap="round"/>
<path d="M17.1607 44.5714L15.2857 46.4464" stroke="#FCFC07" stroke-width="3" stroke-miterlimit="10" stroke-linecap="round"/>
<path d="M36.4464 46.4464L34.5714 44.5714" stroke="#FCFC07" stroke-width="3" stroke-miterlimit="10" stroke-linecap="round"/>
<path d="M17.1607 27.1608L15.2857 25.2858" stroke="#FCFC07" stroke-width="3" stroke-miterlimit="10" stroke-linecap="round"/>
</svg>
