<svg width="100" height="100" viewBox="0 0 100 100" fill="none" xmlns="http://www.w3.org/2000/svg">
<path d="M63 5L63 9" stroke="#FCFC07" stroke-width="3" stroke-miterlimit="10" stroke-linecap="round"/>
<path d="M63 53C74.0457 53 83 44.0457 83 33C83 21.9543 74.0457 13 63 13C51.9543 13 43 21.9543 43 33C43 44.0457 51.9543 53 63 53Z" fill="#FCFC07"/>
<path d="M91 33L87 33" stroke="#FCFC07" stroke-width="3" stroke-miterlimit="10" stroke-linecap="round"/>
<path d="M83.5 13L80 16.5" stroke="#FCFC07" stroke-width="3" stroke-miterlimit="10" stroke-linecap="round"/>
<path d="M46.5 16.5L43 13" stroke="#FCFC07" stroke-width="3" stroke-miterlimit="10" stroke-linecap="round"/>
<path d="M36.7188 24.8437C41.6994 24.8336 46.5881 26.1849 50.8566 28.7515C55.125 31.3181 58.6109 35.0024 60.9375 39.4062C63.7878 37.7397 66.9838 36.7526 70.2775 36.5215C73.5711 36.2903 76.8737 36.8214 79.9288 38.0735C82.9839 39.3256 85.7093 41.265 87.8935 43.7411C90.0776 46.2172 91.6616 49.1634 92.5225 52.3509C93.3835 55.5384 93.4982 58.8815 92.8578 62.1205C92.2173 65.3595 90.8389 68.4074 88.8297 71.0274C86.8204 73.6474 84.2344 75.769 81.2722 77.2276C78.3102 78.6861 75.0517 79.4423 71.75 79.4375L36.7188 79.5312C29.4667 79.5312 22.5117 76.6504 17.3838 71.5224C12.2559 66.3945 9.375 59.4395 9.375 52.1875C9.375 44.9355 12.2559 37.9805 17.3838 32.8525C22.5117 27.7246 29.4667 24.8437 36.7188 24.8437Z" fill="url(#paint0_linear_1_238)"/>
<path d="M92.3957 63.7235C95.5885 52.2957 88.9127 40.4433 77.4849 37.2504C66.0571 34.0575 54.2046 40.7333 51.0118 52.1612C47.8189 63.589 54.4947 75.4414 65.9225 78.6343C77.3504 81.8271 89.2028 75.1514 92.3957 63.7235Z" fill="url(#paint1_linear_1_238)"/>
<path d="M41.4062 93.1719C43.1321 93.1719 44.5312 91.7728 44.5312 90.0469C44.5312 88.321 43.1321 86.9219 41.4062 86.9219C39.6804 86.9219 38.2812 88.321 38.2812 90.0469C38.2812 91.7728 39.6804 93.1719 41.4062 93.1719Z" fill="#C4C4C4"/>
<path d="M57.0312 97.0781C58.3257 97.0781 59.375 96.0288 59.375 94.7344C59.375 93.44 58.3257 92.3906 57.0312 92.3906C55.7368 92.3906 54.6875 93.44 54.6875 94.7344C54.6875 96.0288 55.7368 97.0781 57.0312 97.0781Z" fill="#E0E0E0"/>
<path d="M28.9062 86.1406C30.2007 86.1406 31.25 85.0913 31.25 83.7969C31.25 82.5025 30.2007 81.4531 28.9062 81.4531C27.6118 81.4531 26.5625 82.5025 26.5625 83.7969C26.5625 85.0913 27.6118 86.1406 28.9062 86.1406Z" fill="#E0E0E0"/>
<path d="M50.7812 85.3594C51.6442 85.3594 52.3438 84.6598 52.3438 83.7969C52.3438 82.9339 51.6442 82.2344 50.7812 82.2344C49.9183 82.2344 49.2188 82.9339 49.2188 83.7969C49.2188 84.6598 49.9183 85.3594 50.7812 85.3594Z" fill="white"/>
<path d="M72.6562 96.2969C73.5192 96.2969 74.2188 95.5973 74.2188 94.7344C74.2188 93.8714 73.5192 93.1719 72.6562 93.1719C71.7933 93.1719 71.0938 93.8714 71.0938 94.7344C71.0938 95.5973 71.7933 96.2969 72.6562 96.2969Z" fill="white"/>
<path d="M27.3438 96.2969C28.2067 96.2969 28.9062 95.5973 28.9062 94.7344C28.9062 93.8714 28.2067 93.1719 27.3438 93.1719C26.4808 93.1719 25.7812 93.8714 25.7812 94.7344C25.7812 95.5973 26.4808 96.2969 27.3438 96.2969Z" fill="white"/>
<path d="M66.4062 88.4844C68.1321 88.4844 69.5312 87.0853 69.5312 85.3594C69.5312 83.6335 68.1321 82.2344 66.4062 82.2344C64.6804 82.2344 63.2812 83.6335 63.2812 85.3594C63.2812 87.0853 64.6804 88.4844 66.4062 88.4844Z" fill="#C4C4C4"/>
<defs>
<linearGradient id="paint0_linear_1_238" x1="29.8125" y1="81.8594" x2="62.7656" y2="39.1875" gradientUnits="userSpaceOnUse">
<stop stop-color="#F2F2F2"/>
<stop offset="1" stop-color="#CFCFCF"/>
</linearGradient>
<linearGradient id="paint1_linear_1_238" x1="80.4738" y1="50.3017" x2="55.5814" y2="71.9812" gradientUnits="userSpaceOnUse">
<stop offset="0.02" stop-color="white"/>
<stop offset="1" stop-color="white" stop-opacity="0"/>
</linearGradient>
</defs>
</svg>
