<svg width="100" height="100" viewBox="0 0 100 100" fill="none" xmlns="http://www.w3.org/2000/svg">
<path d="M80.4688 92.9688C81.2976 92.9688 82.0924 92.6395 82.6785 92.0535C83.2645 91.4674 83.5938 90.6726 83.5938 89.8438C83.5938 89.0149 83.2645 88.2201 82.6785 87.634C82.0924 87.048 81.2976 86.7188 80.4688 86.7188H74.2188" stroke="#B9C1C6" stroke-width="3" stroke-miterlimit="10" stroke-linecap="round"/>
<path d="M68.0156 72.6562C69.0435 72.6686 70.0251 73.0856 70.7475 73.8168C71.47 74.548 71.8751 75.5346 71.875 76.5625C71.875 77.5985 71.4635 78.5921 70.7309 79.3246C69.9983 80.0572 69.0048 80.4688 67.9688 80.4688H35.1562C33.913 80.4688 32.7208 80.9626 31.8417 81.8417C30.9626 82.7208 30.4688 83.913 30.4688 85.1563C30.4688 86.3995 30.9626 87.5917 31.8417 88.4708C32.7208 89.3499 33.913 89.8438 35.1562 89.8438H66.0156C66.8444 89.8438 67.6393 90.173 68.2253 90.759C68.8114 91.3451 69.1406 92.1399 69.1406 92.9688V93.0938C69.1406 93.9226 68.8114 94.7174 68.2253 95.3035C67.6393 95.8895 66.8444 96.2188 66.0156 96.2188H63.2812" stroke="#A5A9AA" stroke-width="3" stroke-miterlimit="10" stroke-linecap="round"/>
<path d="M63 5L63 9" stroke="#FCFC07" stroke-width="3" stroke-miterlimit="10" stroke-linecap="round"/>
<path d="M63 53C74.0457 53 83 44.0457 83 33C83 21.9543 74.0457 13 63 13C51.9543 13 43 21.9543 43 33C43 44.0457 51.9543 53 63 53Z" fill="#FCFC07"/>
<path d="M36.7188 24.8438C41.6994 24.8337 46.5881 26.185 50.8566 28.7515C55.125 31.3181 58.6109 35.0024 60.9375 39.4063C63.7878 37.7398 66.9838 36.7527 70.2775 36.5215C73.5711 36.2904 76.8737 36.8215 79.9288 38.0736C82.9839 39.3257 85.7093 41.2651 87.8935 43.7412C90.0776 46.2173 91.6616 49.1635 92.5225 52.351C93.3835 55.5385 93.4982 58.8816 92.8578 62.1206C92.2173 65.3596 90.8389 68.4074 88.8297 71.0274C86.8204 73.6474 84.2344 75.7691 81.2722 77.2276C78.3102 78.6862 75.0517 79.4424 71.75 79.4376L36.7188 79.5313C29.4667 79.5313 22.5117 76.6505 17.3838 71.5225C12.2559 66.3946 9.375 59.4396 9.375 52.1876C9.375 44.9355 12.2559 37.9806 17.3838 32.8526C22.5117 27.7247 29.4667 24.8438 36.7188 24.8438Z" fill="url(#paint0_linear_1_136)"/>
<path d="M92.3957 63.7235C95.5885 52.2956 88.9128 40.4432 77.4849 37.2503C66.0571 34.0575 54.2047 40.7332 51.0118 52.1611C47.8189 63.5889 54.4947 75.4414 65.9226 78.6342C77.3504 81.8271 89.2028 75.1513 92.3957 63.7235Z" fill="url(#paint1_linear_1_136)"/>
<path d="M91 33L87 33" stroke="#FCFC07" stroke-width="3" stroke-miterlimit="10" stroke-linecap="round"/>
<path d="M83.5 13L80 16.5" stroke="#FCFC07" stroke-width="3" stroke-miterlimit="10" stroke-linecap="round"/>
<path d="M46.5 16.5L43 13" stroke="#FCFC07" stroke-width="3" stroke-miterlimit="10" stroke-linecap="round"/>
<defs>
<linearGradient id="paint0_linear_1_136" x1="29.8125" y1="81.8594" x2="62.7656" y2="39.1876" gradientUnits="userSpaceOnUse">
<stop stop-color="#F2F2F2"/>
<stop offset="1" stop-color="#CFCFCF"/>
</linearGradient>
<linearGradient id="paint1_linear_1_136" x1="80.4889" y1="50.3058" x2="55.5814" y2="71.9811" gradientUnits="userSpaceOnUse">
<stop offset="0.02" stop-color="white"/>
<stop offset="1" stop-color="white" stop-opacity="0"/>
</linearGradient>
</defs>
</svg>
